<svg xmlns="http://www.w3.org/2000/svg" width="21.544" height="20"><defs><linearGradient id="a" y1=".425" x2="1" y2=".425" gradientUnits="objectBoundingBox"><stop offset="0" stop-color="#ee0979"/><stop offset="1" stop-color="#ff6a00"/></linearGradient></defs><path d="M51.36 58.764a2.322 2.322 0 00-2.318 1.582h-1.871l-1.365-4.106a.769.769 0 00-.731-.529h-.015a.76.76 0 00-.721.558L42.2 63.737l-.3-1.8-2.215-13.3a.772.772 0 00-1.51-.063l-2.549 11.772h-2.857a.769.769 0 100 1.539h3.462a.767.767 0 00.745-.582l1.8-8.761 2.467 14.806a.764.764 0 00.717.64H42a.772.772 0 00.741-.558l2.39-8.348.755 2.275a.776.776 0 00.731.529h2.457a2.309 2.309 0 102.284-3.121z" transform="translate(-32 -47.987)" fill="url(#a)"/></svg>