<svg xmlns="http://www.w3.org/2000/svg" width="18.547" height="19.375"><defs><linearGradient id="a" y1=".5" x2="1" y2=".5" gradientUnits="objectBoundingBox"><stop offset="0" stop-color="#ee0979"/><stop offset="1" stop-color="#ff6a00"/></linearGradient></defs><path d="M7.383-6.133a8.034 8.034 0 000-2.734l1.641-.977a.421.421 0 00.215-.234.515.515 0 00.02-.312 9.7 9.7 0 00-2.148-3.672.579.579 0 00-.273-.156.441.441 0 00-.312.039l-1.643.979A7.48 7.48 0 002.5-14.57v-1.914a.5.5 0 00-.1-.293.434.434 0 00-.254-.176 9.964 9.964 0 00-4.3 0 .434.434 0 00-.254.176.5.5 0 00-.1.293v1.914a7.48 7.48 0 00-2.375 1.37l-1.641-.977a.441.441 0 00-.312-.039.58.58 0 00-.273.156 9.7 9.7 0 00-2.148 3.672.515.515 0 00.02.313.421.421 0 00.215.234l1.641.977a8.034 8.034 0 000 2.734l-1.641.977a.421.421 0 00-.215.234.515.515 0 00-.02.313A9.7 9.7 0 00-7.109-.937a.579.579 0 00.273.156.441.441 0 00.313-.039l1.64-.98A7.48 7.48 0 00-2.5-.43v1.914a.5.5 0 00.1.293.434.434 0 00.254.176 9.964 9.964 0 004.3 0 .434.434 0 00.246-.176.5.5 0 00.1-.293V-.43A7.48 7.48 0 004.883-1.8l1.64.98a.441.441 0 00.313.039.579.579 0 00.273-.156 9.7 9.7 0 002.149-3.672.515.515 0 00-.02-.312.421.421 0 00-.215-.234zM3.125-7.5a3.009 3.009 0 01-.918 2.207A3.009 3.009 0 010-4.375a3.009 3.009 0 01-2.207-.918A3.009 3.009 0 01-3.125-7.5a3.009 3.009 0 01.918-2.207A3.009 3.009 0 010-10.625a3.009 3.009 0 012.207.918A3.009 3.009 0 013.125-7.5z" transform="translate(9.273 17.188)" fill="url(#a)"/></svg>