<svg xmlns="http://www.w3.org/2000/svg" width="45" height="45"><defs><linearGradient id="a" y1=".5" x2="1" y2=".5" gradientUnits="objectBoundingBox"><stop offset="0" stop-color="#ee0979"/><stop offset="1" stop-color="#ff6a00"/></linearGradient></defs><path d="M22.5 0a22.6 22.6 0 0116.914 7.662A22.231 22.231 0 0145 22.5 22.5 22.5 0 1122.5 0z" fill="url(#a)"/><path d="M22.542 20.724A2.681 2.681 0 1025.25 23.4a2.7 2.7 0 00-2.708-2.676zm8.125 2.676a8.125 8.125 0 10-12.188 6.971l1.355-2.346a5.288 5.288 0 01-2.709-4.625 5.417 5.417 0 0110.833 0 5.288 5.288 0 01-2.708 4.63l1.35 2.346a8.069 8.069 0 004.067-6.976zM22.542 10A13.513 13.513 0 009 23.4 13.354 13.354 0 0015.771 35l1.354-2.346a10.657 10.657 0 01-5.417-9.254 10.834 10.834 0 0121.668 0 10.576 10.576 0 01-5.417 9.249L29.313 35a13.354 13.354 0 006.771-11.6A13.513 13.513 0 0022.542 10z" fill="#fff"/></svg>