<svg xmlns="http://www.w3.org/2000/svg" width="200" height="215.963"><defs><linearGradient id="a" x1=".5" x2=".5" y2="1" gradientUnits="objectBoundingBox"><stop offset="0" stop-color="#ee0979"/><stop offset="1" stop-color="#ff6a00"/></linearGradient></defs><circle cx="12.8" cy="12.8" r="12.8" transform="translate(0 25.763)" fill="url(#a)"/><path d="M62.9 52.9l41.5 24a12.579 12.579 0 010 21.8l-41.5 24a12.536 12.536 0 01-18.8-10.9v-48a12.5 12.5 0 0118.8-10.9z" transform="translate(7.646 12.498)" fill="url(#a)"/><path d="M29.215 82.985A14.505 14.505 0 0014.913 68.2 14.6 14.6 0 00.5 82.985v96.105c0 15.016 5.922 27.145 16.2 33.267a28.763 28.763 0 0015.085 4.043c6.7 0 13.855-2.079 20.894-6.238l130.391-77.854a36.473 36.473 0 00.112-62.145L70.668 2.473a13.994 13.994 0 00-19.553 5.314A15 15 0 0056.254 28l72.738 43.78a36.207 36.207 0 0114.749 29.455 35.751 35.751 0 01-13.184 28.185l-52.85 31.535a33.644 33.644 0 01-31.4-1.733c-10.726-6.353-16.872-17.673-17.095-30.379z" transform="translate(-.5 -.437)" fill="url(#a)"/></svg>